<?xml version="1.0" encoding="UTF-8" standalone="no"?>
<svg xmlns="http://www.w3.org/2000/svg" width="24" height="24" viewBox="0 0 24 24">
	<path style="fill:#fff" d="M13 17h4v1h-4v-1zm0-1h4v-1h-4v1zm9-14v22h-20v-22h3c1.23 0 2.181-1.084 3-2h8c.82.916 1.771 2 3 2h3zm-11 1c0 .552.448 1 1 1 .553 0 1-.448 1-1s-.447-1-1-1c-.552 0-1 .448-1 1zm9 1h-4l-2 2h-3.897l-2.103-2h-4v18h16v-18zm-7 9h4v-1h-4v1zm0-2h4v-1h-4v1zm-6.5.077l.386-.355c.449.218.735.383 1.241.745.952-1.081 1.58-1.627 2.748-2.355l.125.288c-.963.841-1.669 1.777-2.686 3.6-.626-.738-1.044-1.208-1.814-1.923zm.098 5l.386-.355c.449.218.735.383 1.241.745.952-1.081 1.58-1.627 2.748-2.355l.125.289c-.963.841-1.669 1.777-2.686 3.6-.627-.739-1.045-1.209-1.814-1.924z"/>
</svg>