<?xml version="1.0" encoding="UTF-8" standalone="no"?>
<svg xmlns="http://www.w3.org/2000/svg" width="24" height="24" viewBox="0 0 24 24">
	<path style="fill:#fff" d="M24 13c0-6.627-5.373-12-12-12s-12 5.373-12 12c0 2.583.816 5.042 2.205 7h4.358c.93 1.647 3.015 3 5.438 3s4.508-1.353 5.438-3h4.357c1.388-1.958 2.204-4.417 2.204-7zm-4.492-6.436l-2.203 2.203c-.316-.396-.676-.755-1.071-1.071l2.203-2.203c.382.328.742.688 1.071 1.071zm-4.431-2.964c.479.156.948.352 1.399.581l-1.193 2.878c-.443-.245-.913-.44-1.399-.58l1.193-2.879zm-3.835-.46c.256-.02.51-.029.758-.029s.502.01.758.029v3.115c-.252-.027-.506-.042-.758-.042s-.506.014-.758.042v-3.115zm-.371 10.441l1.129-5.294 1.129 5.293c.721.398 1.207 1.165 1.207 2.045 0 1.29-1.045 2.336-2.336 2.336-1.29 0-2.336-1.046-2.336-2.336 0-.88.486-1.646 1.207-2.044zm-1.986-9.969l1.205 2.875c-.486.141-.954.338-1.397.585l-1.205-2.874c.45-.231.919-.427 1.397-.586zm-3.322 1.881l2.203 2.203c-.395.316-.754.675-1.071 1.071l-2.202-2.203c.328-.383.688-.743 1.07-1.071zm-2.964 4.432c.156-.479.351-.948.58-1.399l2.879 1.192c-.246.443-.44.913-.58 1.399l-2.879-1.192zm15.893 1.091c-.147-.483-.35-.95-.603-1.39l2.86-1.238c.235.445.438.912.602 1.39l-2.859 1.238z"/>
</svg>